<?xml version="1.0" encoding="UTF-8" standalone="no"?>
<svg
   width="64"
   height="64"
   viewBox="0 0 64 64"
   version="1.1"
   id="svg8"
   xmlns="http://www.w3.org/2000/svg"
   xmlns:svg="http://www.w3.org/2000/svg">
  <defs
     id="defs12" />
  <g
     id="g6"
     transform="matrix(0.87096773,0,0,0.87096773,2.1458558,19.265969)">
    <g
       id="g831"
       transform="matrix(3.9543331,0,0,3.8416242,-101.26561,-41.546124)">
      <path
         d="m 29.764983,19.141101 c 0.148993,1.21313 0.791317,2.127225 1.77467,3.024329 l -0.354272,-0.183498 c -2.794443,-1.233519 -4.747904,-4.084592 -4.747904,-7.401114 0,-4.213674 3.16858,-7.717139 7.267538,-8.0297665 -4.098958,0.3126275 -7.267538,3.8160925 -7.267538,8.0297665 0,-4.213674 3.16858,-7.717139 7.267538,-8.0297665 -4.694929,0.9514748 -9.194512,6.5176015 -3.940032,12.5900495 z"
         id="path2" />
      <path
         d="M 40.474249,12.036876 C 40.119931,9.4305144 38.16978,7.6057218 34.617129,6.5590996 c 4.191665,0.190295 7.499351,3.7379364 7.499351,8.0433594 0,4.448144 -3.264598,7.887046 -7.505972,8.084137 -0.400625,0.02043 -0.80125,-0.05097 -1.191943,-0.176702 v -9.072991 c 0.129127,-0.20049 0.129127,-0.400979 0,-0.601469 V 10.905301 H 33.8523 C 33.683442,10.789764 33.54107,10.701413 33.418565,10.647043 V 10.08975 c 2.274624,0.890309 3.330864,0.992253 3.171938,0.295637 0.198611,0.574283 0.02649,0.835939 -0.516508,0.77817 -0.62577,-0.09854 -1.013152,-0.05437 -1.165456,0.135926 1.122413,0.570884 1.721695,1.124778 1.797847,1.661683 0.105951,0.9039 -0.31123,1.899551 -1.251539,2.990348 -0.592661,0.75783 -0.284742,1.563137 0.672123,1.692219 2.969831,-0.149517 4.420119,-2.021837 4.347279,-5.606857 z m -7.055684,10.473018 c -0.9072,-0.288794 -1.721694,-0.86992 -2.119008,-1.274297 -0.701922,-0.747588 -1.178699,-1.943727 -1.354179,-3.669974 0,-0.0102 -0.0034,-0.02043 -0.0034,-0.03054 v -0.584526 c 0.109266,-1.386434 1.009844,-2.361696 2.708362,-2.922386 0.384071,-0.193693 0.642324,-0.390784 0.768141,-0.591273 z m 0,-9.67446 c -0.05297,-0.08835 -0.135748,-0.176702 -0.238388,-0.268451 -0.09271,-0.09514 -0.291364,-0.190295 -0.592661,-0.282044 -0.688677,-0.02039 -1.062814,0.156313 -1.122411,0.533505 -1.168766,-0.533505 -1.201876,-1.14177 -0.10264,-1.821394 0.215212,-0.08496 0.529752,-0.115537 0.946932,-0.09854 -0.17217,-0.781569 0.119194,-1.0840016 0.877402,-0.9005031 0.07946,0.03058 0.155615,0.06117 0.231766,0.09175 v 0.557293 c -0.347649,-0.166508 -0.483398,-0.08155 -0.410557,0.258258 h 0.410557 z"
         id="path4" />
    </g>
  </g>
</svg>
