<?xml version="1.0" encoding="UTF-8" standalone="no"?>
<svg
   version="1.1"
   width="64"
   height="64"
   id="svg944"
   xmlns="http://www.w3.org/2000/svg"
   xmlns:svg="http://www.w3.org/2000/svg">
  <defs
     id="defs35" />
  <g
     id="g29"
     transform="matrix(0.17563739,0,0,0.17563739,1,1)"
     style="fill:#f4680d">
    <g
       id="Camada_1">
      <path
         fill-rule="evenodd"
         clip-rule="evenodd"
         fill="none"
         d="M 353,353 H 0 V 0 h 353 z"
         id="path2" />
      <g
         id="g26">
        <g
           id="g8">
          <path
             fill-rule="evenodd"
             clip-rule="evenodd"
             fill="#111"
             d="m 80.704,271.88 c 3.24,25.704 17.208,45.072 38.592,64.08 l -7.704,-3.888 C 50.824,305.936 8.344,245.527 8.344,175.256 8.344,85.976 77.248,11.744 166.384,5.12 77.248,11.744 8.344,85.976 8.344,175.256 8.344,85.976 77.248,11.744 166.384,5.12 64.288,25.28 -33.56,143.216 80.704,271.88 Z"
             id="path4" />
          <path
             fill-rule="evenodd"
             clip-rule="evenodd"
             fill="#111"
             d="M 313.769,120.896 C 306.064,65.672 263.656,27.008 186.4,4.832 c 91.152,4.032 163.081,79.2 163.081,170.424 0,94.248 -70.992,167.112 -163.225,171.288 -8.712,0.433 -17.424,-1.08 -25.92,-3.744 V 150.56 c 2.808,-4.248 2.808,-8.496 0,-12.744 V 96.92 h 9.432 C 166.096,94.472 163,92.6 160.336,91.448 V 79.64 c 49.464,18.864 72.433,21.024 68.977,6.264 4.319,12.168 0.576,17.712 -11.232,16.488 -13.608,-2.088 -22.032,-1.152 -25.344,2.88 24.408,12.096 37.44,23.832 39.096,35.208 2.304,19.152 -6.768,40.248 -27.216,63.36 -12.888,16.057 -6.192,33.12 14.615,35.855 64.583,-3.168 96.121,-42.839 94.537,-118.799 z M 160.336,342.8 c -19.728,-6.119 -37.44,-18.432 -46.08,-27 -15.264,-15.84 -25.632,-41.184 -29.448,-77.76 0,-0.216 -0.072,-0.433 -0.072,-0.647 v -12.385 c 2.376,-29.376 21.96,-50.04 58.896,-61.92 8.352,-4.104 13.968,-8.28 16.704,-12.528 z m 0,-204.984 c -1.152,-1.872 -2.952,-3.744 -5.184,-5.688 -2.016,-2.016 -6.336,-4.032 -12.888,-5.976 -14.976,-0.432 -23.112,3.312 -24.408,11.304 -25.416,-11.304 -26.136,-24.192 -2.232,-38.592 4.68,-1.8 11.52,-2.448 20.592,-2.088 -3.744,-16.56 2.592,-22.968 19.08,-19.08 1.728,0.648 3.384,1.296 5.04,1.944 v 11.808 c -7.56,-3.528 -10.512,-1.728 -8.928,5.472 h 8.928 z"
             id="path6" />
        </g>
        <g
           id="g24">
          <linearGradient
             id="XMLID_1_"
             gradientUnits="userSpaceOnUse"
             x1="86.3638"
             y1="337.95999"
             x2="86.3638"
             y2="7.1206002">
            <stop
               offset="0"
               style="stop-color:#F40A0B"
               id="stop10" />
            <stop
               offset="1"
               style="stop-color:#F5E710"
               id="stop12" />
            <a:midPointStop
               offset="0"
               style="stop-color:#F40A0B" />
            <a:midPointStop
               offset="0.5"
               style="stop-color:#F40A0B" />
            <a:midPointStop
               offset="1"
               style="stop-color:#F5E710" />
          </linearGradient>
          <path
             fill-rule="evenodd"
             clip-rule="evenodd"
             fill="url(#XMLID_1_)"
             d="m 79.704,273.88 c 3.24,25.704 17.208,45.072 38.592,64.08 l -7.704,-3.888 C 49.824,307.936 7.344,247.527 7.344,177.256 7.344,87.976 76.248,13.744 165.384,7.12 76.248,13.744 7.344,87.976 7.344,177.256 7.344,87.976 76.248,13.744 165.384,7.12 63.288,27.28 -34.56,145.216 79.704,273.88 Z"
             id="path15"
             style="fill:url(#XMLID_1_)" />
          <linearGradient
             id="XMLID_2_"
             gradientUnits="userSpaceOnUse"
             x1="216.1084"
             y1="348.98831"
             x2="216.1084"
             y2="7.2768998">
            <stop
               offset="0"
               style="stop-color:#F40A0B"
               id="stop17" />
            <stop
               offset="1"
               style="stop-color:#F5E710"
               id="stop19" />
            <a:midPointStop
               offset="0"
               style="stop-color:#F40A0B" />
            <a:midPointStop
               offset="0.5"
               style="stop-color:#F40A0B" />
            <a:midPointStop
               offset="1"
               style="stop-color:#F5E710" />
          </linearGradient>
          <path
             fill-rule="evenodd"
             clip-rule="evenodd"
             fill="url(#XMLID_2_)"
             d="M 312.769,122.896 C 305.064,67.672 262.656,29.008 185.4,6.832 c 91.152,4.032 163.081,79.2 163.081,170.424 0,94.248 -70.992,167.112 -163.225,171.288 -8.712,0.433 -17.424,-1.08 -25.92,-3.744 V 152.56 c 2.808,-4.248 2.808,-8.496 0,-12.744 V 98.92 h 9.432 C 165.096,96.472 162,94.6 159.336,93.448 V 81.64 c 49.464,18.864 72.433,21.024 68.977,6.264 4.319,12.168 0.576,17.712 -11.232,16.488 -13.608,-2.088 -22.032,-1.152 -25.344,2.88 24.408,12.096 37.44,23.832 39.096,35.208 2.304,19.152 -6.768,40.248 -27.216,63.36 -12.888,16.057 -6.192,33.12 14.616,35.855 64.582,-3.168 96.12,-42.839 94.536,-118.799 z M 159.336,344.8 c -19.728,-6.119 -37.44,-18.432 -46.08,-27 -15.264,-15.84 -25.632,-41.184 -29.448,-77.76 0,-0.216 -0.072,-0.433 -0.072,-0.647 v -12.385 c 2.376,-29.376 21.96,-50.04 58.896,-61.92 8.352,-4.104 13.968,-8.28 16.704,-12.528 z m 0,-204.984 c -1.152,-1.872 -2.952,-3.744 -5.184,-5.688 -2.016,-2.016 -6.336,-4.032 -12.888,-5.976 -14.976,-0.432 -23.112,3.312 -24.408,11.304 -25.416,-11.304 -26.136,-24.192 -2.232,-38.592 4.68,-1.8 11.52,-2.448 20.592,-2.088 -3.744,-16.56 2.592,-22.968 19.08,-19.08 1.728,0.648 3.384,1.296 5.04,1.944 v 11.808 c -7.56,-3.528 -10.512,-1.728 -8.928,5.472 h 8.928 z"
             id="path22"
             style="fill:url(#XMLID_2_)" />
        </g>
      </g>
    </g>
  </g>
</svg>
